<?xml version="1.0" encoding="UTF-8"?>
<svg width="66px" height="48px" viewBox="0 0 66 48" version="1.1" xmlns="http://www.w3.org/2000/svg" xmlns:xlink="http://www.w3.org/1999/xlink">
    <!-- Generator: Sketch 63 (92445) - https://sketch.com -->
    <desc>Created with Sketch.</desc>
    <defs>
        <path d="M1.38112041e-16,5.1277704 L-1.38112041e-16,34.8722296 C8.02470732e-17,36.6552671 0.185651222,37.3018396 0.534265408,37.9536914 C0.882879593,38.6055433 1.39445674,39.1171204 2.04630859,39.4657346 C2.69816044,39.8143488 3.34473292,40 5.1277704,40 L52.8722296,40 C54.6552671,40 55.3018396,39.8143488 55.9536914,39.4657346 C56.6055433,39.1171204 57.1171204,38.6055433 57.4657346,37.9536914 C57.8143488,37.3018396 58,36.6552671 58,34.8722296 L58,5.1277704 C58,3.34473292 57.8143488,2.69816044 57.4657346,2.04630859 C57.1171204,1.39445674 56.6055433,0.882879593 55.9536914,0.534265408 C55.3018396,0.185651222 54.6552671,-1.2037061e-16 52.8722296,2.07168062e-16 L5.1277704,-2.07168062e-16 C3.34473292,1.2037061e-16 2.69816044,0.185651222 2.04630859,0.534265408 C1.39445674,0.882879593 0.882879593,1.39445674 0.534265408,2.04630859 C0.185651222,2.69816044 -8.02470732e-17,3.34473292 1.38112041e-16,5.1277704 Z" id="path-1"></path>
        <filter x="-12.1%" y="-12.5%" width="124.1%" height="135.0%" filterUnits="objectBoundingBox" id="filter-2">
            <feOffset dx="0" dy="2" in="SourceAlpha" result="shadowOffsetOuter1"></feOffset>
            <feGaussianBlur stdDeviation="2" in="shadowOffsetOuter1" result="shadowBlurOuter1"></feGaussianBlur>
            <feColorMatrix values="0 0 0 0 0.133333333   0 0 0 0 0.160784314   0 0 0 0 0.262745098  0 0 0 0.14 0" type="matrix" in="shadowBlurOuter1"></feColorMatrix>
        </filter>
        <polygon id="path-3" points="0.168892013 0.377413154 14.2917399 0.377413154 14.2917399 15.4893617 0.168892013 15.4893617"></polygon>
        <polygon id="path-5" points="0.46055627 0.20612766 4.25664 0.20612766 4.25664 11.2829383 0.46055627 11.2829383"></polygon>
        <polygon id="path-7" points="0.238448471 0.0372589802 5.181 0.0372589802 5.181 7.29664446 0.238448471 7.29664446"></polygon>
    </defs>
    <g id="50x50" stroke="none" stroke-width="1" fill="none" fill-rule="evenodd">
        <g id="button/dnevnik" transform="translate(4.000000, 2.000000)">
            <g id="button-bg">
                <use fill="black" fill-opacity="1" filter="url(#filter-2)" xlink:href="#path-1"></use>
                <use fill="#FFFFFF" fill-rule="evenodd" xlink:href="#path-1"></use>
            </g>
            <g id="dnevnik" transform="translate(17.000000, 6.000000)">
                <g id="Group-3" transform="translate(5.400000, 12.304630)">
                    <mask id="mask-4" fill="white">
                        <use xlink:href="#path-3"></use>
                    </mask>
                    <g id="Clip-2"></g>
                    <path d="M13.86924,10.547183 C13.07964,12.9319489 11.10084,14.7245447 8.37204,15.2374809 C5.71524,15.7510128 3.23424,15.4507574 1.75764,14.5976511 C0.62484,13.9423319 0.17844,13.2637787 0.18624,11.9763745 C0.09084,10.1367149 0.37764,6.14105532 1.32744,4.5301617 C1.55064,4.14292766 1.90164,3.84326809 2.49984,3.64548085 C3.46524,3.32973617 4.34304,3.33748085 4.23924,3.6848 C3.76044,5.28020426 2.61984,10.1367149 3.23424,11.5182468 C3.66504,12.4976511 5.42844,12.8133957 7.02384,12.6948426 C9.01824,12.5530553 10.42224,11.8339915 11.14884,9.89126809 C11.69124,8.43109787 11.55564,6.65399149 10.68564,5.16939574 C9.01824,2.32709787 4.27104,1.91603404 1.49484,2.82454468 C1.04004,2.96633191 0.92844,3.17186383 0.79284,2.84837447 C0.41784,1.96369362 1.04004,1.32386383 2.12484,0.889565957 C4.56624,-0.0814978723 8.20464,0.408204255 10.54224,1.68726809 C14.07684,3.62999149 14.92224,7.36471489 13.86924,10.547183" id="Fill-1" fill="#2F7AB5" mask="url(#mask-4)"></path>
                </g>
                <path d="M4.5411,19.5115319 C4.3179,19.3220851 4.0941,19.0694894 3.9663,18.8877872 C3.4239,18.1609787 2.8815,17.434766 2.3391,16.7162979 C2.2191,16.5661702 2.0517,16.4714468 1.9161,16.3368085 C1.7085,16.1318723 1.2861,15.9501702 0.9909,15.9501702 C0.7515,15.9424255 0.5037,16.0526383 0.3363,16.2265957 C0.1053,16.4714468 -0.0147,16.818766 0.0015,17.1505957 C0.0333,17.600383 0.2247,17.9560426 0.4401,18.3349362 C0.5919,18.6113617 0.7515,18.8717021 0.9111,19.140383 C1.3419,19.8904255 1.7649,20.6642979 2.2671,21.3750213 C2.4111,21.5722128 3.2007,22.7494043 3.8151,23.3808936 C4.3659,23.9569787 4.7805,23.9254043 4.7487,23.167617 C4.7085,22.4014894 4.6767,21.3988511 4.7163,21.0277021 C4.7805,20.372383 5.0439,19.9535745 4.5411,19.5115319" id="Fill-4" fill="#CA79D0"></path>
                <path d="M7.22178,11.4730298 C7.28538,11.6070723 7.32558,11.6863064 7.48518,11.7572 C7.66038,11.836434 7.82838,11.7810298 7.99578,11.7256255 C8.19558,11.6702213 8.36298,11.6469872 8.56218,11.591583 C8.76978,11.5361787 8.96898,11.5439234 9.18438,11.528434 C9.36018,11.5123489 9.54378,11.528434 9.67158,11.3860511 C9.91878,11.1173702 9.75918,10.3041787 9.70338,9.94911489 C9.59958,9.23005106 9.09678,5.81941277 8.98518,4.80843404 C8.89698,3.97141277 8.85738,2.96877447 8.06778,2.39209362 C7.54098,2.00485957 6.63138,2.18715745 6.39978,2.82639149 C6.14478,3.53711489 6.16038,4.22400851 6.22458,4.9585617 C6.32838,6.24537021 6.54378,7.54051915 6.72738,8.8118383 C6.81498,9.39626383 6.88698,9.97234894 6.97458,10.5490298 C7.01418,10.8332 7.13418,11.3074128 7.22178,11.4730298" id="Fill-6" fill="#F7951F"></path>
                <g id="Group-10" transform="translate(10.800000, 0.389736)">
                    <mask id="mask-6" fill="white">
                        <use xlink:href="#path-5"></use>
                    </mask>
                    <g id="Clip-9"></g>
                    <path d="M3.26724,0.217685106 C3.53064,0.257004255 3.78564,0.407131915 3.98544,0.691302128 C4.19244,0.991557447 4.25664,1.22091915 4.25664,1.5682383 C4.25664,2.59470638 3.43464,10.6491745 3.37884,10.846366 C3.33084,11.0280681 3.32304,11.2175149 3.09984,11.2729191 C2.91624,11.3122383 2.74884,11.2258553 2.57304,11.1859404 C2.39784,11.154366 2.19804,11.1150468 2.01504,11.091217 C1.64004,11.0518979 1.28844,11.0596426 0.90564,11.0203234 C0.51504,10.9804085 0.43464,10.8541106 0.46704,10.5145362 C0.48264,10.3411745 0.48264,10.167217 0.49104,10.0016 C0.59424,8.31981277 0.78624,6.62968511 1.00944,4.95564255 C1.12944,4.11862128 1.25664,3.2816 1.42404,2.46066383 C1.52784,1.97870638 1.60764,1.40202553 1.87944,0.97547234 C2.20584,0.46253617 2.75664,0.139046809 3.26724,0.217685106" id="Fill-8" fill="#FDD02A" mask="url(#mask-6)"></path>
                </g>
                <path d="M19.365,3.20534468 C19.5804,3.22142979 19.7796,3.31615319 19.9632,3.45794043 C20.3622,3.75819574 20.2824,4.7376 20.187,5.23504681 C19.9398,6.46704681 18.2004,12.1760681 18.1044,12.404834 C18.0084,12.6336 17.841,13.1787064 17.61,13.2418553 C17.3226,13.3204936 17.0274,13.0994723 16.8198,12.9654298 C16.5966,12.8153021 16.3728,12.6812596 16.1334,12.5704511 C15.9504,12.4918128 15.8304,12.4286638 15.6312,12.3732596 C15.4794,12.3261957 15.2562,12.2630468 15.216,12.0890894 C15.1764,11.9389617 15.336,11.4963234 15.4074,11.2991319 C15.5274,10.9678979 15.615,10.7147064 15.711,10.3673872 C15.9582,9.5148766 16.2534,8.66177021 16.5402,7.81700426 C16.8036,7.04313191 17.0754,6.28474894 17.3622,5.51921702 C17.4978,5.15581277 17.61,4.76083404 17.793,4.40577021 C18.0162,3.97921702 18.2004,3.64798298 18.6468,3.40313191 C18.8622,3.27683404 19.1094,3.18151489 19.365,3.20534468" id="Fill-11" fill="#CDE03A"></path>
                <g id="Group-15" transform="translate(18.600000, 8.730162)">
                    <mask id="mask-8" fill="white">
                        <use xlink:href="#path-7"></use>
                    </mask>
                    <g id="Clip-14"></g>
                    <path d="M4.98552,0.366025532 C4.53072,-0.233889362 3.88452,0.0896 3.47772,0.523897872 C3.03072,1.0136 0.86052,4.38551489 0.53352,4.85913191 C0.36612,5.10398298 0.18252,5.33274894 0.25452,5.64908936 C0.33432,5.97257872 0.58152,6.27283404 0.76512,6.55700426 C0.85272,6.69104681 0.94812,6.82508936 1.02792,6.97521702 C1.08432,7.10151489 1.16352,7.2123234 1.29912,7.26713191 C1.44312,7.3308766 1.61052,7.29930213 1.83432,7.09377021 C2.10552,6.84117447 2.27292,6.5016 2.48052,6.20134468 C2.96712,5.50670638 3.41352,4.78049362 3.83652,4.04594043 C4.12392,3.54849362 4.39512,3.05104681 4.67412,2.5536 C4.98552,1.97691915 5.44812,0.982025532 4.98552,0.366025532" id="Fill-13" fill="#72CCE4" mask="url(#mask-8)"></path>
                </g>
            </g>
        </g>
    </g>
</svg>