<?xml version="1.0" encoding="UTF-8"?>
<svg width="66px" height="48px" viewBox="0 0 66 48" version="1.1" xmlns="http://www.w3.org/2000/svg" xmlns:xlink="http://www.w3.org/1999/xlink">
    <!-- Generator: Sketch 63 (92445) - https://sketch.com -->
    <desc>Created with Sketch.</desc>
    <defs>
        <path d="M1.38112041e-16,5.1277704 L-1.38112041e-16,34.8722296 C8.02470732e-17,36.6552671 0.185651222,37.3018396 0.534265408,37.9536914 C0.882879593,38.6055433 1.39445674,39.1171204 2.04630859,39.4657346 C2.69816044,39.8143488 3.34473292,40 5.1277704,40 L52.8722296,40 C54.6552671,40 55.3018396,39.8143488 55.9536914,39.4657346 C56.6055433,39.1171204 57.1171204,38.6055433 57.4657346,37.9536914 C57.8143488,37.3018396 58,36.6552671 58,34.8722296 L58,5.1277704 C58,3.34473292 57.8143488,2.69816044 57.4657346,2.04630859 C57.1171204,1.39445674 56.6055433,0.882879593 55.9536914,0.534265408 C55.3018396,0.185651222 54.6552671,-1.2037061e-16 52.8722296,2.07168062e-16 L5.1277704,-2.07168062e-16 C3.34473292,1.2037061e-16 2.69816044,0.185651222 2.04630859,0.534265408 C1.39445674,0.882879593 0.882879593,1.39445674 0.534265408,2.04630859 C0.185651222,2.69816044 -8.02470732e-17,3.34473292 1.38112041e-16,5.1277704 Z" id="path-1"></path>
        <filter x="-12.1%" y="-12.5%" width="124.1%" height="135.0%" filterUnits="objectBoundingBox" id="filter-2">
            <feOffset dx="0" dy="2" in="SourceAlpha" result="shadowOffsetOuter1"></feOffset>
            <feGaussianBlur stdDeviation="2" in="shadowOffsetOuter1" result="shadowBlurOuter1"></feGaussianBlur>
            <feColorMatrix values="0 0 0 0 0.133333333   0 0 0 0 0.160784314   0 0 0 0 0.262745098  0 0 0 0.14 0" type="matrix" in="shadowBlurOuter1"></feColorMatrix>
        </filter>
    </defs>
    <g id="50x50" stroke="none" stroke-width="1" fill="none" fill-rule="evenodd">
        <g id="button/vk" transform="translate(4.000000, 2.000000)">
            <g id="button-bg-copy">
                <use fill="black" fill-opacity="1" filter="url(#filter-2)" xlink:href="#path-1"></use>
                <use fill="#4976A8" fill-rule="evenodd" xlink:href="#path-1"></use>
            </g>
            <g id="ic/24/vk" transform="translate(17.000000, 8.000000)" fill="#FFFFFF">
                <g id="Group-3">
                    <rect id="Rectangle" fill-opacity="0" x="0" y="0" width="24" height="24"></rect>
                    <g id="button" transform="translate(2.000000, 2.000000)" fill-rule="nonzero">
                        <path d="M17.7777778,0 L2.22222222,0 C0.994444444,0 0,0.994444444 0,2.22222222 L0,17.7777778 C0,19.0055556 0.994444444,20 2.22222222,20 L17.7777778,20 C19.0055556,20 20,19.0055556 20,17.7777778 L20,2.22222222 C20,0.994444444 19.0055556,0 17.7777778,0 Z M16.5633333,14.0933333 L14.6355556,14.12 C14.6355556,14.12 14.22,14.2011111 13.6755556,13.8255556 C12.9544444,13.33 12.2744444,12.0411111 11.7444444,12.2088889 C11.2066667,12.38 11.2233333,13.54 11.2233333,13.54 C11.2233333,13.54 11.2277778,13.7444444 11.1044444,13.8777778 C10.9711111,14.0211111 10.71,14.0066667 10.71,14.0066667 L9.84666667,14.0066667 C9.84666667,14.0066667 7.94222222,14.1644444 6.26333333,12.4144444 C4.43444444,10.5066667 2.81888889,6.74111111 2.81888889,6.74111111 C2.81888889,6.74111111 2.72444444,6.50333333 2.82555556,6.38222222 C2.94,6.24777778 3.24888889,6.24444444 3.24888889,6.24444444 L5.31222222,6.23444444 C5.31222222,6.23444444 5.50666667,6.26888889 5.64666667,6.37111111 C5.76111111,6.45555556 5.82666667,6.61444444 5.82666667,6.61444444 C5.82666667,6.61444444 6.16,7.46 6.60222222,8.22555556 C7.46444444,9.71777778 7.86555556,10.0444444 8.15777778,9.88444444 C8.58444444,9.65111111 8.45666667,7.77555556 8.45666667,7.77555556 C8.45666667,7.77555556 8.46444444,7.09444444 8.24222222,6.79111111 C8.06888889,6.55444444 7.74333333,6.48444444 7.6,6.46666667 C7.48333333,6.45111111 7.67333333,6.18111111 7.92111111,6.05888889 C8.29222222,5.87777778 8.94888889,5.86666667 9.72333333,5.87444444 C10.3266667,5.88111111 10.5011111,5.91777778 10.7366667,5.97555556 C11.4488889,6.14777778 11.2066667,6.81222222 11.2066667,8.40666667 C11.2066667,8.91777778 11.1144444,9.63555556 11.4822222,9.87222222 C11.6411111,9.97444444 12.0277778,9.88777778 12.9933333,8.24333333 C13.4522222,7.46333333 13.7955556,6.54666667 13.7955556,6.54666667 C13.7955556,6.54666667 13.8711111,6.38333333 13.9877778,6.31333333 C14.1077778,6.24111111 14.2688889,6.26333333 14.2688889,6.26333333 L16.4411111,6.25 C16.4411111,6.25 17.0933333,6.17111111 17.2,6.46777778 C17.3111111,6.77777778 16.9566667,7.50111111 16.0688889,8.68444444 C14.6122222,10.6288889 14.45,10.4477778 15.66,11.5722222 C16.8155556,12.6466667 17.0544444,13.1688889 17.0944444,13.2344444 C17.5722222,14.03 16.5633333,14.0933333 16.5633333,14.0933333 Z" id="Shape"></path>
                    </g>
                </g>
            </g>
        </g>
    </g>
</svg>