<?xml version="1.0" encoding="UTF-8"?>
<svg width="66px" height="48px" viewBox="0 0 66 48" version="1.1" xmlns="http://www.w3.org/2000/svg" xmlns:xlink="http://www.w3.org/1999/xlink">
    <!-- Generator: Sketch 63 (92445) - https://sketch.com -->
    <desc>Created with Sketch.</desc>
    <defs>
        <path d="M1.38112041e-16,5.1277704 L-1.38112041e-16,34.8722296 C8.02470732e-17,36.6552671 0.185651222,37.3018396 0.534265408,37.9536914 C0.882879593,38.6055433 1.39445674,39.1171204 2.04630859,39.4657346 C2.69816044,39.8143488 3.34473292,40 5.1277704,40 L52.8722296,40 C54.6552671,40 55.3018396,39.8143488 55.9536914,39.4657346 C56.6055433,39.1171204 57.1171204,38.6055433 57.4657346,37.9536914 C57.8143488,37.3018396 58,36.6552671 58,34.8722296 L58,5.1277704 C58,3.34473292 57.8143488,2.69816044 57.4657346,2.04630859 C57.1171204,1.39445674 56.6055433,0.882879593 55.9536914,0.534265408 C55.3018396,0.185651222 54.6552671,-1.2037061e-16 52.8722296,2.07168062e-16 L5.1277704,-2.07168062e-16 C3.34473292,1.2037061e-16 2.69816044,0.185651222 2.04630859,0.534265408 C1.39445674,0.882879593 0.882879593,1.39445674 0.534265408,2.04630859 C0.185651222,2.69816044 -8.02470732e-17,3.34473292 1.38112041e-16,5.1277704 Z" id="path-1"></path>
        <filter x="-12.1%" y="-12.5%" width="124.1%" height="135.0%" filterUnits="objectBoundingBox" id="filter-2">
            <feOffset dx="0" dy="2" in="SourceAlpha" result="shadowOffsetOuter1"></feOffset>
            <feGaussianBlur stdDeviation="2" in="shadowOffsetOuter1" result="shadowBlurOuter1"></feGaussianBlur>
            <feColorMatrix values="0 0 0 0 0.133333333   0 0 0 0 0.160784314   0 0 0 0 0.262745098  0 0 0 0.14 0" type="matrix" in="shadowBlurOuter1"></feColorMatrix>
        </filter>
    </defs>
    <g id="50x50" stroke="none" stroke-width="1" fill="none" fill-rule="evenodd">
        <g id="button/google" transform="translate(4.000000, 2.000000)">
            <g id="button-bg">
                <use fill="black" fill-opacity="1" filter="url(#filter-2)" xlink:href="#path-1"></use>
                <use fill="#FFFFFF" fill-rule="evenodd" xlink:href="#path-1"></use>
            </g>
            <g id="logo_google" transform="translate(19.000000, 10.000000)">
                <path d="M19.6,10.2272727 C19.6,9.51818182 19.5363636,8.83636364 19.4181818,8.18181818 L10,8.18181818 L10,12.05 L15.3818182,12.05 C15.15,13.3 14.4454545,14.3590909 13.3863636,15.0681818 L13.3863636,17.5772727 L16.6181818,17.5772727 C18.5090909,15.8363636 19.6,13.2727273 19.6,10.2272727 L19.6,10.2272727 Z" id="Shape" fill="#4285F4"></path>
                <path d="M10,20 C12.7,20 14.9636364,19.1045455 16.6181818,17.5772727 L13.3863636,15.0681818 C12.4909091,15.6681818 11.3454545,16.0227273 10,16.0227273 C7.39545455,16.0227273 5.19090909,14.2636364 4.40454545,11.9 L1.06363636,11.9 L1.06363636,14.4909091 C2.70909091,17.7590909 6.09090909,20 10,20 L10,20 Z" id="Shape" fill="#34A853"></path>
                <path d="M4.40454545,11.9 C4.20454545,11.3 4.09090909,10.6590909 4.09090909,10 C4.09090909,9.34090909 4.20454545,8.7 4.40454545,8.1 L4.40454545,5.50909091 L1.06363636,5.50909091 C0.386363636,6.85909091 0,8.38636364 0,10 C0,11.6136364 0.386363636,13.1409091 1.06363636,14.4909091 L4.40454545,11.9 L4.40454545,11.9 Z" id="Shape" fill="#FBBC05"></path>
                <path d="M10,3.97727273 C11.4681818,3.97727273 12.7863636,4.48181818 13.8227273,5.47272727 L16.6909091,2.60454545 C14.9590909,0.990909091 12.6954545,0 10,0 C6.09090909,0 2.70909091,2.24090909 1.06363636,5.50909091 L4.40454545,8.1 C5.19090909,5.73636364 7.39545455,3.97727273 10,3.97727273 L10,3.97727273 Z" id="Shape" fill="#EA4335"></path>
                <polygon id="Shape" points="0 0 20 0 20 20 0 20"></polygon>
            </g>
        </g>
    </g>
</svg>