<?xml version="1.0" encoding="UTF-8"?>
<svg width="66px" height="48px" viewBox="0 0 66 48" version="1.1" xmlns="http://www.w3.org/2000/svg" xmlns:xlink="http://www.w3.org/1999/xlink">
    <!-- Generator: Sketch 63 (92445) - https://sketch.com -->
    <desc>Created with Sketch.</desc>
    <defs>
        <path d="M1.38112041e-16,5.1277704 L-1.38112041e-16,34.8722296 C8.02470732e-17,36.6552671 0.185651222,37.3018396 0.534265408,37.9536914 C0.882879593,38.6055433 1.39445674,39.1171204 2.04630859,39.4657346 C2.69816044,39.8143488 3.34473292,40 5.1277704,40 L52.8722296,40 C54.6552671,40 55.3018396,39.8143488 55.9536914,39.4657346 C56.6055433,39.1171204 57.1171204,38.6055433 57.4657346,37.9536914 C57.8143488,37.3018396 58,36.6552671 58,34.8722296 L58,5.1277704 C58,3.34473292 57.8143488,2.69816044 57.4657346,2.04630859 C57.1171204,1.39445674 56.6055433,0.882879593 55.9536914,0.534265408 C55.3018396,0.185651222 54.6552671,-1.2037061e-16 52.8722296,2.07168062e-16 L5.1277704,-2.07168062e-16 C3.34473292,1.2037061e-16 2.69816044,0.185651222 2.04630859,0.534265408 C1.39445674,0.882879593 0.882879593,1.39445674 0.534265408,2.04630859 C0.185651222,2.69816044 -8.02470732e-17,3.34473292 1.38112041e-16,5.1277704 Z" id="path-1"></path>
        <filter x="-12.1%" y="-12.5%" width="124.1%" height="135.0%" filterUnits="objectBoundingBox" id="filter-2">
            <feOffset dx="0" dy="2" in="SourceAlpha" result="shadowOffsetOuter1"></feOffset>
            <feGaussianBlur stdDeviation="2" in="shadowOffsetOuter1" result="shadowBlurOuter1"></feGaussianBlur>
            <feColorMatrix values="0 0 0 0 0.133333333   0 0 0 0 0.160784314   0 0 0 0 0.262745098  0 0 0 0.14 0" type="matrix" in="shadowBlurOuter1"></feColorMatrix>
        </filter>
    </defs>
    <g id="50x50" stroke="none" stroke-width="1" fill="none" fill-rule="evenodd">
        <g id="button/facebook" transform="translate(4.000000, 2.000000)">
            <g id="button-bg-copy">
                <use fill="black" fill-opacity="1" filter="url(#filter-2)" xlink:href="#path-1"></use>
                <use fill="#2553B4" fill-rule="evenodd" xlink:href="#path-1"></use>
            </g>
            <g id="ic/24/facebook" transform="translate(17.000000, 8.000000)" fill="#FFFFFF">
                <g id="Group-4">
                    <rect id="Rectangle" fill-opacity="0" x="0" y="0" width="24" height="24"></rect>
                    <g id="facebook-app-logo" transform="translate(2.000000, 2.000000)" fill-rule="nonzero">
                        <path d="M18.8954752,0 L1.10386617,0 C0.494632154,0 0,0.493644207 0,1.10386617 L0,18.8954752 C0,19.5056972 0.494632154,20 1.10386617,20 L10.6823421,20 L10.6823421,12.2548245 L8.07613779,12.2548245 L8.07613779,9.23598762 L10.6823421,9.23598762 L10.6823421,7.00981361 C10.6823421,4.42699071 12.2594349,3.0198248 14.563986,3.0198248 C15.6688402,3.0198248 16.6162814,3.10248304 16.8925772,3.13837845 L16.8925772,5.83810841 L15.2940789,5.83876704 C14.0410327,5.83876704 13.799315,6.43449911 13.799315,7.30817362 L13.799315,9.23499967 L16.7888428,9.23499967 L16.3979451,12.2535072 L13.7989857,12.2535072 L13.7989857,19.9990121 L18.8951459,19.9990121 C19.5050385,19.9990121 20,19.5040506 20,18.8954752 L20,1.10320753 C19.9996707,0.493644207 19.5053678,0 18.8954752,0 Z" id="Shape"></path>
                    </g>
                </g>
            </g>
        </g>
    </g>
</svg>